<svg xmlns="http://www.w3.org/2000/svg" version="1.1" xmlns:xlink="http://www.w3.org/1999/xlink" xmlns:svgjs="http://svgjs.dev/svgjs" width="1000" height="1125" viewBox="0 0 1000 1125"><g transform="matrix(1,0,0,1,1.7053025658242404e-13,0)"><svg viewBox="0 0 320 360" data-background-color="#ffffff" preserveAspectRatio="xMidYMid meet" height="1125" width="1000" xmlns="http://www.w3.org/2000/svg" xmlns:xlink="http://www.w3.org/1999/xlink"><defs></defs><g id="tight-bounds" transform="matrix(1,0,0,1,-5.684341886080802e-14,0)"><svg viewBox="0 0 320 360" height="360" width="320"><g><svg></svg></g><g><svg viewBox="0 0 320 360" height="360" width="320"><g><path d="M85.508 32.884c0-1.117 0.558-2.233 1.675-2.233 1.117 0 2.233 0.558 2.234 2.233 0.558 0 1.675 0 2.233-0.558 2.233 0 4.467-0.558 6.141 0 1.675 0.558 2.792 0.558 4.467 1.117 1.675 0.558 2.792 0 3.908-0.559 2.233-0.558 3.908-1.675 6.141-2.233 1.117-0.558 1.675-0.558 2.792-0.558 1.117-0.558 2.233-0.558 3.908-1.117 2.792-0.558 5.583-1.117 7.817-2.233 2.233-1.117 4.467-1.117 6.699-1.675 1.117 0 1.675-0.558 2.792-1.117 0.558 0 0.558-0.558 1.116-1.116 1.117-0.558 1.675-1.117 2.792-0.559 0.558 0.558 1.675 0.558 2.233 0h0.559c3.35 0 6.7-0.558 10.608 0 0.558 0 1.117 0 1.116 0 1.675-1.117 3.908-1.117 6.142-1.116 0.558 0 1.675 0 2.233 0h0.558c2.233 0 4.467 0 6.142 0.558 1.675 0 2.792 0.558 4.466 1.117 1.675 0 2.792 0 4.467 0.558 1.117 0 2.233 0 3.35 0 0.558 0 1.117 0 1.116 0 2.233 0.558 4.467 0.558 6.7 0.558 1.675 0.558 3.35 1.117 5.583 1.117 0.558 0 1.117 0 1.675 0 0.558 0 1.117 0.558 1.675 0.558l0.558 0.559c2.233 0 3.908 1.117 6.142 1.116 0.558 0 1.675 0 2.233 0.559 1.675 1.117 3.908 1.675 6.141 1.675 1.117 0 1.675 0.558 2.234 1.116 1.675 0.558 2.792 1.117 4.466 1.675 1.117 0.558 2.233 0 3.35 0.558 1.675 0.558 3.908 1.117 5.583 2.792 1.117 1.117 2.233 1.117 3.908 2.233 0.558 0 1.117 0.558 1.675 1.117 1.675 1.117 3.35 2.233 5.025 2.791 0.558 0 1.117 0.558 1.675 0.559 1.675 1.117 3.35 2.792 5.583 3.908 1.117 0.558 1.675 1.117 2.792 1.675h0.558c1.675 1.675 3.908 2.792 5.583 4.466 1.675 1.675 2.792 2.792 5.025 3.909 0 0 0 0 0 0.558 0.558 1.117 1.117 1.675 2.233 2.233 1.117 0.558 1.675 1.117 2.234 1.675 1.675 1.117 3.35 2.233 4.466 3.35 0.558 0.558 1.117 1.117 2.233 2.233 0.558 0.558 1.117 1.117 1.675 1.117 2.233 0.558 3.35 2.233 5.025 3.908 1.117 1.117 2.792 2.792 3.908 3.908 0.558 0.558 1.117 1.675 1.675 2.792 1.117 3.35 2.792 6.7 4.467 9.491 0 0 0 0.558 0.558 1.117v0.558c1.117 1.117 1.675 2.792 2.792 3.908 0.558 0.558 0.558 1.117 1.116 1.675 1.117 1.675 1.675 3.908 2.792 5.583 1.675 2.792 2.792 5.583 3.908 8.375v0.558c0.558 1.117 1.117 2.233 1.675 3.908 0 1.117 1.117 2.233 1.675 3.909 0.558 2.792 2.233 5.583 2.791 8.933 0 0.558 0.558 1.117 0.559 2.233 0.558 1.675 1.117 3.35 1.675 5.025 0 0.558 0.558 1.117 1.116 1.675 1.117 1.117 1.117 2.233 1.117 3.35-0.558 2.233 0 4.467 0.558 6.699 0 0.558 0 1.117 0 2.234 0.558 2.233 1.117 5.025 1.117 7.258 0 0.558 0 1.675 0 2.233 0 1.675 0.558 3.35 1.675 5.025 0 0.558 0.558 0.558 0.558 0.558 0.558 0.558 1.117 1.675 1.675 2.233 0.558 0.558 0.558 0.558 1.117 1.117 1.117 1.117 1.675 2.233 1.675 3.908 0 0.558-0.558 1.675-0.559 2.233 0 0.558 0 1.675 0.559 2.234 0.558 0.558 0.558 1.117 0.558 1.675 0 0.558-0.558 1.117-1.117 1.116v0c-0.558 1.675-2.792 2.233-3.35 3.908-0.558 2.233-1.117 4.467-1.674 6.7-0.558 1.675-0.558 2.792-0.559 4.467 0 1.675-0.558 2.792-0.558 4.466-0.558 2.233-1.117 4.467-1.675 6.7 0 1.117-0.558 2.233-0.558 3.35 0.558 0.558 1.117 1.117 1.675 1.116 1.117 1.117 2.233 2.233 3.349 3.35 0.558 0.558 0.558 1.117 0 1.117-0.558 0.558-1.117 0.558-1.674 0.558-0.558-0.558-1.675-1.117-2.234-1.116-0.558-0.558-1.675-1.117-2.791-0.559 0 1.117-0.558 2.233-0.559 2.792-0.558 1.117-1.117 2.792-1.116 3.908-0.558 2.233-1.675 3.908-2.233 6.142-1.117 2.792-2.233 5.025-3.35 7.258-0.558 1.117-1.117 2.233-1.675 3.35v0c0 1.675-1.675 3.35-2.234 5.024-1.117 2.233-2.233 4.467-3.349 7.258-0.558 1.117-1.117 2.233-1.675 2.792-1.117 2.792-2.233 5.025-3.909 7.258-1.117 1.675-2.233 2.792-3.349 3.35-1.117 1.117-2.233 2.233-3.35 3.35-0.558 0.558-1.117 1.117-1.675 1.675-0.558 0.558-0.558 0.558-1.117 1.116-1.117 1.675-2.792 2.792-3.908 4.467-1.117 1.117-1.675 2.233-3.35 3.35-1.117 1.117-2.233 2.792-3.908 3.35-0.558 0.558-1.117 1.675-1.675 2.233-0.558 0.558-1.117 1.675-1.675 2.233 0 1.117 0.558 2.233 0.558 2.792 0 1.675-1.675 2.233-2.791 1.116-1.675-1.117-1.675-1.117-3.35 0-1.675 1.117-3.35 2.792-5.583 3.35-0.558 0-0.558 0.558-1.117 0.559-1.117 0.558-1.675 1.675-2.792 2.233-1.117 1.117-2.792 1.675-3.908 2.791-0.558 0.558-1.117 0.558-1.675 1.117-1.675 1.117-3.35 1.675-5.024 3.35-0.558 0.558-1.117 0.558-1.675 1.117 0 0.558 0 0.558 0 1.116 0 1.117-1.117 2.233-2.792 1.675-1.675-0.558-2.792 0-4.466 0-1.675 0.558-3.35 1.675-5.025 2.233-0.558 0-1.117 0.558-1.675 1.117-1.675 1.117-3.35 1.675-5.025 2.233-1.117 0-2.233 1.117-3.35 1.117-0.558 0-1.117 0.558-1.675 0.558h-0.558c-2.233 1.675-4.467 2.792-6.7 4.467-0.558 0-0.558 0.558-1.117 1.116-0.558 1.117-1.117 1.675-2.233 1.675-2.792 0-3.908 2.233-3.35 4.467 0 0.558 0.558 1.117 0.559 1.675 0.558 1.117 0 2.233-0.559 2.791-0.558 0.558-2.233 0.558-2.791-0.558-1.117-1.117-1.675-2.233-2.234-3.908-0.558-1.117-1.675-2.233-2.791-2.792-1.117-0.558-2.233-0.558-3.35 0-0.558 0-0.558 0.558-1.117 0.558-1.117 1.117-2.792 1.675-4.466 1.117-0.558 0-1.675 0-1.675 0.558-0.558 0.558-0.558 1.675 0 2.234 1.117 1.117 0.558 2.233 0.558 3.908 0 2.233-1.675 3.35-3.908 2.233-0.558-0.558-1.117-0.558-1.675-1.117-0.558 0-0.558-0.558-0.558-1.116-0.558-0.558-0.558-1.675-1.117-2.792-1.117 0.558-2.233 0.558-3.35 1.117-0.558 0-1.117 0.558-1.675 0.558-1.675 0-2.233 0-2.791-1.675-0.558-1.675-1.675-1.675-2.792-2.233-2.233-0.558-5.025-0.558-7.258-1.675h-0.558c-2.233-1.675-4.467-1.675-7.258-1.675-1.675 0-3.35 0.558-5.025 0.558-1.675 0-2.792 0.558-3.908 1.675-0.558 0.558-1.117 1.117-1.675 1.117-0.558-0.558-0.558-1.117-1.117-1.675v-0.558c0-0.558-0.558-1.117-1.116-0.559-1.117 0.558-2.233-0.558-3.35-1.116-0.558-0.558-1.675-1.675-1.675-2.792-0.558-0.558-1.117-1.117-1.675-1.116-1.117 0-2.792-0.558-3.908-0.559-0.558 0-1.117 0-1.117-0.558-0.558-0.558-1.117-0.558-2.233-0.558-0.558 0-0.558-0.558-1.117-0.559 1.117 1.117 1.675 2.233 2.233 3.35 0 0.558 0.558 0.558 0.559 1.117 0.558 1.117 0 1.675-1.675 1.675-1.117 0-1.117 0-1.675 0.558 0 1.117 0 1.675 0 2.792 0 0.558 0 1.117-1.117 1.675 0 0-0.558 0-0.558 0.558-0.558 0.558-0.558 1.117 0 1.675 1.675 1.117 2.792 1.675 4.466 2.233 1.675 0 1.675 1.117 2.234 2.233 0.558 1.117 0 1.675-0.559 2.792-1.117 1.117-2.233 2.233-3.35 3.35-1.675 0.558-2.792 2.233-4.466 2.233-1.117 0-2.233-0.558-2.792-1.675-0.558-2.792-0.558-5.025 0.559-7.816 0-0.558 0.558-1.117 0-1.675-5.025 0-5.025-1.117-5.025-1.675 0-1.117 0.558-1.675 0.558-2.792 0.558-1.117 0-1.675-1.675-2.233-0.558 0-1.117 0-1.675 0-0.558 0-0.558-0.558-1.675-0.558 1.117-0.558 1.675-0.558 2.792-1.117-0.558-2.233-1.117-3.908-2.792-5.025-0.558-0.558-1.117-1.117-1.116-2.233 0-1.675-1.117-2.792-1.675-3.908-1.117-1.675-3.35-2.233-5.025-2.233-1.675-0.558-2.792-0.558-4.467-1.117-1.675-0.558-3.35-2.233-5.024-2.792-0.558-0.558-1.117-1.117-2.234-1.674-2.233-1.117-3.908-2.792-5.583-4.467-1.117-0.558-1.675-1.675-2.791-2.233-1.117-1.117-1.675-2.233-2.792-2.792-1.117-1.117-2.233-2.233-3.908-3.35-1.675-1.117-2.792-2.792-4.467-4.466-1.117-1.675-2.792-2.792-4.466-3.908-0.558 0-1.117 0-1.675 0-0.558 0-1.117 0.558-1.675 0.558-1.675 0.558-2.792 1.675-4.467 2.233 0.558-0.558 0.558-0.558 0-1.675-0.558-0.558-1.117-1.117-1.674-1.116-1.117 0-2.233 0-3.35 0-2.233 0-4.467 0.558-6.7 0.558-1.675 0-3.908 0.558-5.583 1.117 0.558 1.117 0.558 1.675 1.116 2.791-1.117 0.558-2.233 0.558-3.35 0.558-0.558 0-1.675 0.558-2.233 1.117-0.558 0-0.558 0.558-1.116 0-1.117-0.558-2.233 0-3.35 0.558h-0.559c0 0 0-0.558 0.559-0.558 0.558-0.558 1.117-1.117 1.675-1.675 0.558-0.558 1.117-0.558 2.233-1.117-0.558-0.558-0.558-1.117-0.558-1.116-0.558-0.558-1.117-0.558-1.675 0-0.558 0.558-1.117 1.117-1.675 1.675-0.558 0.558-1.117 0.558-1.675 0-0.558-0.558-0.558-1.117 0-1.675 0-0.558 0.558-1.117 1.116-1.675 0.558-0.558 0.558-1.117 1.117-1.675-1.117-1.117-1.675-2.233-2.792-2.792-1.675-1.117-3.35-2.792-4.466-4.466-1.117-2.233-2.792-3.908-5.025-5.025-0.558-0.558-1.117-1.117-1.675-1.675-0.558-0.558-0.558-0.558-1.116-1.117-1.675 0.558-2.792 1.675-4.467 2.234-0.558 0-0.558 0.558-1.117 1.116-0.558 1.117-1.675 1.117-2.791 1.117-0.558 0-1.117-0.558-0.558-1.117 0.558-1.117 1.117-2.233 2.791-1.675 0 0 0.558 0 0.558-0.558 1.117-1.117 2.233-2.792 3.909-3.908-0.558-1.675-1.675-2.792-2.234-3.908-0.558-0.558-0.558-1.117-0.558-2.234 0-0.558 0-0.558-0.558-1.116 0 0-0.558 0-1.117 0.558-0.558 0.558-1.675 1.117-2.791 0 0-0.558 0-1.117 0.558-1.675l0.558-0.558c1.675-0.558 1.675-2.233 1.675-3.908v-0.559c-0.558-1.117-0.558-1.675 0.558-2.791 1.675-1.117 3.35-3.35 3.909-5.025 0.558-1.117 1.675-1.675 2.791-2.792 1.117-1.117 2.233-2.233 2.792-3.908h0.558c2.233 0.558 2.792-1.117 3.908-2.791 0-0.558 0-1.117 0.559-1.117 1.117-1.117 1.117-2.233 0.558-3.908 0-0.558-0.558-1.675-0.558-2.233 0-0.558 0-0.558-0.559-1.117-1.675-1.117-1.675-2.233 0-3.35 1.117-0.558 1.117-1.675 1.675-2.233 0.558-1.117 0.558-2.233 0.559-3.908-0.558-1.675-0.558-3.908-1.117-5.583-0.558-2.233-1.117-5.025-1.675-7.259 0-0.558 0-0.558 0-1.116 0-1.675 0-2.792-0.558-4.467-0.558-0.558-0.558-1.675-0.559-2.233-0.558-1.675-1.117-2.792-2.791-3.35-1.675-1.117-3.908-1.675-5.583-2.791-0.558-0.558-1.117 0-1.675 0.558-0.558 1.117-1.675 2.233-2.234 3.35-0.558 0.558-1.117 1.675-1.675 2.791-1.117 1.117-3.35 2.233-5.024 0.559-0.558-1.117-1.117-1.675 0-2.792 1.117-1.675 2.233-3.35 3.908-4.466 0.558-0.558 1.117-1.675 1.675-2.234 0.558-1.117 0.558-2.233 0.558-3.35-0.558-2.233-1.117-4.467-1.117-7.258 0-2.792 0-5.025 0.559-7.816 0.558-1.117 0.558-2.792 1.116-3.908 0-0.558 0.558-1.675 1.117-2.233 1.117-1.117 2.233-2.233 2.792-3.909 0.558-1.675 1.675-3.35 1.675-5.024 0-0.558 0.558-1.117 0.558-1.675 0-0.558 0.558-1.675 0.558-2.234-0.558-1.675 0-2.792 0.558-3.908 0.558-1.117 1.117-2.792 1.675-3.908 1.117-2.233 1.117-5.025 3.35-7.258 0.558-1.117 1.117-2.233 1.675-3.35 0.558-2.233 1.675-3.908 2.792-5.583 0.558-0.558 0.558-0.558 0.558-1.117 0.558-1.675 1.675-3.35 2.792-5.025 1.117-1.675 1.117-3.35 1.675-5.024 0-0.558 0-1.117 0.558-1.675 1.675-1.675 1.117-3.908 0.558-6.142-1.117-2.792-1.675-5.583-1.116-8.374 0-0.558 0-1.117 0.558-1.117 0.558-1.117 0.558-1.675 1.117-2.792v-0.558c1.117-1.117 2.233-2.792 3.908-3.35 2.233-1.117 4.467-1.675 7.258-2.233 2.233 0 4.467-1.117 6.141-3.35 0-0.558 0.558-0.558 1.117-1.117l0.558-0.558c0.558-1.117 1.117-1.675 1.675-2.233 1.117-1.117 2.233-2.792 3.35-3.908 1.117-1.117 2.233-2.792 3.908-4.467l0.559-0.558c1.117-1.117 2.233-2.233 3.349-2.792 1.117-1.117 2.233-2.233 3.35-3.35 1.117-1.117 1.675-2.233 2.792-3.35 1.117-0.558 2.233-1.675 3.35-2.791 1.117-1.117 2.233-2.233 2.791-2.792 1.117-1.117 2.792-2.233 3.909-2.791 1.117-0.558 2.233-1.117 2.791-2.792 0.558-1.675 1.117-2.792 1.675-4.466 0-1.117 0.558-2.233 1.117-3.35 0.558 0 1.117 0 2.233-0.558-0.558-0.558-1.117-0.558-1.117-1.117 0-0.558 0.558-1.117 0.559-1.117 0-0.558 0.558-1.117 0.558-1.675 0 0 0.558 0 0.558-0.558 0 0 0.558 0 0.559-0.558-1.117 0.558-1.675 0-2.234-0.559 0.558 0.558 1.117 0.558 2.234 1.117 0 0 0.558 0 0.558-0.558 0-0.558 0-1.117 0-1.117 0 0-0.558 0-1.117 0-0.558 0-1.117 0.558-1.675 0.558zM182.097 295.292c0-0.558-0.558-0.558-0.559-1.117-0.558-1.117 0-1.675 0.559-2.233 0.558-0.558 1.117-0.558 2.233-0.558 1.117 0.558 1.675 1.117 1.675 2.233 0 0.558 0 1.675 0 2.233 0.558 2.233 0.558 2.233 2.791 2.233 1.117 0 2.233 0 3.35 0 2.233-0.558 4.467-1.675 6.7-2.233 2.233-0.558 4.467-1.117 6.7-1.675 0.558 0 1.117 0 2.233 0 2.233 0.558 3.908 0 5.583-1.117 0.558-0.558 1.675-0.558 2.233-1.116 1.117-0.558 2.233-0.558 3.35-1.117 2.792-1.675 5.583-2.792 7.817-4.466 1.675-1.117 3.35-2.233 5.024-3.35 1.675-1.117 3.35-2.233 5.025-3.35 1.117-0.558 2.792-1.675 3.908-2.792 2.233-1.675 3.908-3.35 6.142-4.466 1.117-0.558 1.675-1.117 2.233-1.675 1.117-0.558 1.675-1.675 2.792-2.233 0.558-0.558 1.117-1.117 2.233-1.675 0.558-0.558 0.558-0.558 0.558-1.117 1.675-1.117 3.35-3.35 4.467-5.025 1.117-1.117 2.233-2.233 3.35-3.908 1.675-1.675 2.792-3.908 4.466-6.141 1.117-1.117 2.233-2.792 2.792-3.909 1.117-2.233 2.233-4.467 3.908-6.141v-0.558c1.117-2.233 2.233-4.467 3.35-6.7 1.675-2.792 2.792-6.141 4.466-8.933 0.558-1.117 1.117-2.233 1.117-3.35 1.117-2.233 1.675-4.467 2.233-6.7 0-0.558 0-0.558 0.559-1.116 1.675-3.35 2.792-6.7 3.349-10.608 0.558-2.233 1.117-4.467 1.675-6.7 1.117-3.35 1.117-6.141 1.675-9.491 0.558-2.233 0.558-5.025 0.559-7.258 0.558-3.35 0.558-7.258 0-10.608 0-2.792-0.558-6.141-0.559-8.933 0-2.792-0.558-5.025-1.116-7.817-0.558-2.792-1.117-5.025-1.675-7.816-1.117-2.233-1.675-4.467-2.234-7.258-0.558-2.233-1.675-3.908-1.674-6.142 0-1.675-0.558-3.35-2.234-3.908-1.675-0.558-2.792-1.117-4.466-2.233-3.35-2.233-5.025-5.025-4.467-8.375 0-1.675 0.558-3.908 1.117-5.583 0.558-1.675 1.117-3.35 0-4.467-0.558-1.675-1.675-2.792-2.233-3.908-1.117-1.675-1.675-2.792-2.792-3.908-1.117-2.233-2.233-4.467-3.908-6.141-2.233-2.792-3.908-5.583-6.7-7.817l-0.558-0.558c-1.675-2.233-3.35-4.467-5.583-6.142-1.117-1.117-2.233-2.233-3.35-2.791-0.558-0.558-1.117-1.117-2.233-1.675-1.675-1.117-3.35-1.675-4.467-2.792-1.675-1.675-3.908-2.792-5.583-3.908 0 0-0.558 0-0.558-0.558-2.233-1.117-3.908-1.675-6.142-2.792-2.233-1.117-4.467-1.675-6.7-1.675-0.558 0-0.558 0-1.116 0-0.558-0.558-1.675-0.558-2.233-0.558-0.558 0-0.558 0-1.117 0-1.117-0.558-2.792 0-3.908 0-2.233 0.558-4.467 0.558-6.7-0.558-2.792-1.117-5.025-2.233-7.258-3.35-1.675-1.117-2.792-2.233-4.467-3.35-3.35-2.792-6.7-6.141-10.608-8.933 0.558-2.792-0.558-3.35-2.791-3.35-1.117 0-2.233 0.558-3.35 1.117-0.558 0.558-0.558 0.558-1.117 1.116-1.675 1.117-2.792 2.792-4.466 3.909-2.792 1.675-3.908 1.117-6.142 0-0.558-0.558-1.117-1.117-1.675-1.675-1.117-1.117-2.233-2.792-2.791-3.909-1.117-2.233-3.35-2.233-5.583-2.233-1.117 0-2.792 0.558-3.908 0.558-2.233 0-4.467 1.117-5.584 2.792-1.117 1.675-2.233 3.35-3.908 5.025-0.558 0.558-1.675 1.117-2.233 2.233-1.117 1.117-2.233 1.117-3.35 0-0.558-0.558-1.117-0.558-1.675-1.117-0.558 0.558-1.117 1.117-1.117 1.675-0.558 1.117-1.117 2.233-1.674 3.909-0.558 1.675-1.675 3.35-2.792 4.466-0.558 0.558-0.558 0.558-1.117 1.117-0.558 1.117-2.233 1.675-3.35 1.675-1.117 1.117-2.233 2.792-2.791 3.908-0.558 1.117-1.117 2.233-1.675 3.908-0.558 0.558-0.558 1.675-1.117 2.233-0.558 1.117-0.558 1.675-0.558 2.792 0.558 1.675-0.558 2.233-2.233 2.791-1.117 0-1.117 0-1.675 1.117 0 1.675 0.558 2.792 1.116 4.467 0.558 0.558 1.117 1.675 1.117 2.233 0 1.117 0.558 1.675 1.675 2.233 0.558 0.558 1.117 1.117 1.675 1.117 0.558 0 0.558 0.558 1.117 0.558 0.558 0.558 1.117 0 1.116-0.558 0.558-1.675 1.117-3.35 1.117-5.025 0.558-2.233 0.558-3.908 1.116-6.142 0.558-1.117 1.117-1.675 1.675-2.233 0 0 0.558 0 1.117 0v0.559c-0.558 2.792-1.675 6.141-2.233 8.933-0.558 1.117-0.558 2.233-1.117 3.349 0 0.558-0.558 1.117-1.116 1.117-1.117 0.558-2.233 1.117-3.35 1.117-0.558 0-1.117 0-1.675 0-1.117-0.558-2.233-1.675-3.35-2.234-0.558-0.558-1.117-1.117-1.675-1.674-0.558-1.117-1.117-2.233-1.675-3.35-0.558-1.117-1.117-1.675-2.233-2.234-0.558-0.558-1.117-0.558-1.675-1.116-1.117-1.117-2.233-1.675-3.908-1.675-0.558 0-1.675 0-2.234 0-0.558 0-1.675 0.558-2.233 1.116-1.117 0.558-1.675 0.558-2.791 0-2.792-1.117-5.583-0.558-8.375 0.559-1.117 0.558-2.233 1.117-3.35 1.116-2.792 0-5.025 0-7.816 0-2.792 0-5.025-0.558-7.817-1.116-1.117 0-2.233 0-3.35 0-2.233 0.558-2.792 2.233-2.233 4.466 0.558 2.233 1.117 5.025 1.117 7.258 0 1.675 0 3.35 0 5.025 0 1.117 0 1.675 0 2.792 0 1.675-0.558 3.35-0.559 5.025-0.558 3.35-2.233 6.141-4.466 8.374-1.675 1.675-3.908 3.35-6.142 3.908-1.117 0.558-2.233 1.117-3.908 1.675-2.792 1.117-5.025 3.35-6.7 6.142-0.558 1.117-1.117 2.233-1.674 3.35-1.117 1.675-1.675 2.792-2.792 4.466-0.558 1.117-1.675 2.233-2.233 3.35-0.558 1.117-1.675 1.675-1.675 2.792-1.117 2.233-1.675 4.467-2.792 6.699-0.558 1.117-0.558 2.792-1.116 3.909-1.117 2.233-1.117 4.467-1.117 7.258 0 0.558 0 1.117 0 2.233 0 2.792-0.558 6.141-0.558 8.933 0 2.792 0 5.583 0.558 8.375 0 1.117 0 2.792 0 3.908 0 2.233 0.558 5.025 0.558 7.258 0 2.233 0 5.025 1.117 7.258v0.558c0.558 2.233 0.558 4.467 1.116 6.7 0 0.558 0 1.117 0.559 1.675 1.117 3.35 1.675 6.141 2.791 9.491 0.558 2.233 1.675 4.467 2.234 6.7 0.558 2.233 2.792 4.467 3.349 7.258v0c1.675 3.35 3.35 6.7 5.584 10.05 0.558 1.117 1.675 2.233 2.233 3.35 1.117 1.675 1.675 3.35 2.791 4.466 0.558 1.117 1.675 2.233 2.234 2.792 0.558 1.117 1.117 2.233 2.233 3.35 1.117 1.117 2.233 2.792 3.35 3.908 1.675 2.792 3.908 5.025 6.141 6.7 1.117 1.117 2.233 1.675 3.35 2.791 0.558 0.558 1.117 0.558 1.117 1.117 0.558 0.558 1.117 1.117 2.233 1.675 4.467 2.233 7.816 5.583 11.725 8.933 1.675 1.675 3.35 3.35 5.583 4.466 2.233 1.675 3.908 3.35 6.7 3.908 0 0 0.558 0 0.558 0.559 1.117 1.117 2.792 1.675 3.908 2.233 2.233 1.117 5.025 2.233 7.258 3.35 0.558 0.558 1.675 0.558 2.233 1.117 1.675 0.558 3.35 1.117 5.025 1.674 1.675 0.558 2.792 1.117 4.467 1.117h0.558c1.117 0.558 1.675 0.558 2.792 0 0.558 0 1.117 0 1.116 0.558 0 0.558 0.558 0.558 1.117 0.559 0.558 0 1.117 0 2.233 0 0.558-0.558 0.558-1.117 1.117-2.234 0.558 0.558 1.117 0.558 1.116 0.559 0.558 1.117 1.675 1.117 2.792 1.116h0.558c1.117 0 1.675 0 2.233-0.558 0-0.558 1.117-0.558 1.675-0.558 1.675 0.558 3.35 0.558 5.025 1.116 1.117 0.558 2.792 0.558 3.35-0.558 0.558-0.558 1.117-1.117 2.233-0.558 1.117 0.558 1.675 0.558 2.792 0 0.558 0 1.117 0 1.117 0 1.675 0.558 2.792 0.558 4.466 1.116 2.233 0.558 2.233 0.558 3.908-1.116 0.558-0.558 1.675-0.558 2.233 0 0.558 1.117 0.558 1.675 0.559 2.791 0.558 0 0.558 0 1.116-0.558 0-1.117 0.558-1.117 1.675-1.675 0.558 0.558 0.558 0.558 1.117 0.558 1.117 1.117 1.675 1.117 2.233-0.558 0-0.558 0-1.117 0.559-1.116 0.558 0 1.117 0.558 1.116 0.558 0.558 1.117 1.675 1.675 2.233 2.791 1.117 1.117 2.792 1.117 3.35 0 0.558-0.558 1.117-0.558 1.675-0.558 0-0.558 0-1.117 0-1.675 1.675 1.117 1.117 1.117 0.559 1.117zM89.417 34.559c1.675 0.558 2.792 0.558 3.349-0.558-1.117 0.558-2.233-0.558-3.349 0.558z" fill="#398378" data-fill-palette-color="tertiary"></path></g><g transform="matrix(1,0,0,1,64,159.07426754975148)"><svg viewBox="0 0 192 41.851464900497035" height="41.851464900497035" width="192"><g><svg viewBox="0 0 192 41.851464900497035" height="41.851464900497035" width="192"><g><svg viewBox="0 0 192 41.851464900497035" height="41.851464900497035" width="192"><g><svg viewBox="0 0 192 41.851464900497035" height="41.851464900497035" width="192"><g><svg viewBox="0 0 192 41.851464900497035" height="41.851464900497035" width="192"><g><svg viewBox="0 0 192 23.726342461748374" height="23.726342461748374" width="192"><g transform="matrix(1,0,0,1,0,0)"><svg width="192" viewBox="2.825000047683716 -31.149999618530273 256.5149841308594 31.69999885559082" height="23.726342461748374" data-palette-color="#398378"><path d="M8.15 0.15L7.45 0.15 6.65 0.15 5.9 0.15 5.5 0.15 3.55-0.4 3.45-0.7Q3.4-0.7 3.4-1.2L3.4-1.2Q3.4-1.85 3.35-2.25L3.35-2.25 3.3-4.15Q3.25-4.75 3.25-6.05L3.25-6.05Q3.25-7.3 3.2-7.9L3.2-7.9 3.2-9.4Q2.9-12.55 2.9-15.9L2.9-15.9 2.9-16.3 2.9-17.05Q2.9-17.65 2.95-17.9L2.95-17.9 2.95-18.3 2.95-18.65Q2.9-18.8 2.9-19.15L2.9-19.15 2.9-19.7 2.9-20 2.9-20.5 2.9-21.3Q2.9-21.9 2.95-22.15L2.95-22.15 2.95-22.65 3-22.9 3-23.55Q3.05-24.05 3.05-24.9L3.05-24.9Q3.05-25.55 3-26.05L3-26.05 2.95-27.2 2.9-27.4Q2.75-27.5 2.9-27.55L2.9-27.55Q3.1-28.35 4.15-28.7L4.15-28.7Q4.65-28.9 5.8-28.9L5.8-28.9Q6.65-28.9 10.25-29.05L10.25-29.05Q12.05-29.15 12.5-29.15L12.5-29.15Q13.25-29.2 14.3-29.2L14.3-29.2Q14.8-29.15 15-29.03 15.2-28.9 15.38-28.6 15.55-28.3 15.65-28.15L15.65-28.15 16.65-26.7Q16.6-26.75 17.9-24.9L17.9-24.9Q19.1-22.95 20.8-20.5L20.8-20.5Q21.05-20.1 21.4-19.6 21.75-19.1 22.15-18.45L22.15-18.45 22.15-20.2Q22.2-20.9 22.2-22.2L22.2-22.2Q22.2-23.9 22.3-26L22.3-26Q22.3-26.4 22.35-26.73 22.4-27.05 22.4-27.25L22.4-27.25Q22.4-27.75 22.45-27.75L22.45-27.75Q22.65-28.05 23.15-28.4L23.15-28.4Q23.75-28.8 24.4-28.75L24.4-28.75 26.9-28.75 27.4-28.75Q28.15-28.75 28.65-28.7L28.65-28.7 30.15-28.7Q30.65-28.65 31.65-28.65L31.65-28.65 32.75-28.65 33.25-28.65Q34.25-28.65 34.75-28.3L34.75-28.3Q35.05-28.1 35.15-27.78 35.25-27.45 35.25-26.8L35.25-26.8Q35.25-26.15 35.2-25.7L35.2-25.7Q35.15-25.2 35.15-24.5L35.15-24.5 35.15-24.15Q35.2-24 35.2-23.7L35.2-23.7 35.2-22.4 35.15-16.65 35.15-11 35.15-9.65Q35.15-4.25 35.05-2.8L35.05-2.8 34.9-1.15Q34.65 0 34.2 0.05L34.2 0.05Q34.1 0.05 33.93 0.1 33.75 0.15 33.55 0.15L33.55 0.15Q31.75 0.15 30.9 0.05L30.9 0.05 28.3 0.05 25.7 0.05 25.05 0.05Q24.9 0.1 24.65 0.1L24.65 0.1Q24.05 0.1 23.4-0.15L23.4-0.15Q23-0.25 22.55-0.7L22.55-0.7 18.15-6.9Q17.9-7.25 17.2-8.05L17.2-8.05 16.55-8.65Q16.3-8.9 16.15-8.9L16.15-8.9Q16-8.9 15.9-8.78 15.8-8.65 15.8-8.55L15.8-8.55 15.8-7.7Q15.75-7.3 15.75-6.45L15.75-6.45 15.75-5Q15.7-4.45 15.7-3.5L15.7-3.5 15.7-2.3 15.7-1.55Q15.65-1.45 15.65-1.25L15.65-1.25Q15.65-1.2 15.5-0.45L15.5-0.45Q15.4-0.25 15.35-0.2 15.3-0.15 15-0.15L15-0.15Q14.9-0.2 14.83-0.2 14.75-0.2 14.7-0.2L14.7-0.2Q10.75 0.15 8.15 0.15L8.15 0.15ZM41.55 0.05Q40.6 0.05 40.8-1.65L40.8-1.65Q40.8-2.25 41.05-3L41.05-3Q41.05-3.35 41.1-3.58 41.15-3.8 41.15-3.95L41.15-3.95Q42.3-9.4 43.7-14.7L43.7-14.7 47.1-28Q47.1-28.1 47.25-28.25 47.4-28.4 47.55-28.5L47.55-28.5 47.9-28.5Q48.5-28.5 48.85-28.65L48.85-28.65Q49.15-28.7 49.9-28.7L49.9-28.7Q51.1-28.7 51.7-28.65L51.7-28.65Q52.6-28.5 53.55-28.5L53.55-28.5 56.15-28.55Q56.55-28.65 57.1-28.65L57.1-28.65 59.3-28.75 60.95-28.75Q61.9-28.75 62.8-28.7L62.8-28.7 64.2-28.7Q64.7-28.65 65.65-28.65L65.65-28.65 67.55-28.65Q67.7-28.65 67.85-28.6 68-28.55 68.1-28.5L68.1-28.5Q68.3-28.4 68.6-28.4L68.6-28.4 69.05-28.4Q69.4-28.15 69.4-27.9L69.4-27.9 72.95-14.7Q74.6-8.35 75.55-3.95L75.55-3.95Q75.55-3.7 75.7-3L75.7-3Q75.9-2 75.9-1.4L75.9-1.4Q75.9-1.05 75.8-0.45L75.8-0.45Q75.55 0.05 75.1 0.05L75.1 0.05 74.55 0.05Q73.9 0.05 73.55 0L73.55 0 72.45 0 71.4 0 70.55 0Q70.2 0 70.15-0.05L70.15-0.05 67.4-0.05 67.35-0.15Q67.25-0.25 67.05-0.25L67.05-0.25 66.9-0.15Q66.9-0.05 66.8-0.05L66.8-0.05 66.65-0.05 66.3-0.05Q66.05-0.15 65.4-0.15L65.4-0.15Q64.2-0.25 63.4-0.25L63.4-0.25Q62.85-1.4 62.1-5.3L62.1-5.3Q61.05-5.15 59.7-5.15L59.7-5.15 58.4-5.15 57.15-5.15Q56.95-4.4 56.9-3.9L56.9-3.9Q56.85-3.65 56.5-2.2 56.15-0.75 55.85-0.25L55.85-0.25 55.55-0.15Q55.4-0.1 55.3-0.08 55.2-0.05 55.2-0.05L55.2-0.05 55.1-0.05Q54.8-0.05 54.7-0.15L54.7-0.15Q54.5-0.25 54.45-0.25L54.45-0.25 52.55-0.15 51.15-0.15Q50.9-0.1 50.75-0.08 50.6-0.05 50.55-0.05L50.55-0.05 46.55-0.05 46.15-0.05Q45.7 0 44.3 0L44.3 0 43.1 0Q42.8 0.05 42.15 0.05L42.15 0.05 41.55 0.05ZM61.65-10.65Q61.35-12.35 61.3-12.65L61.3-12.65 60.9-15.05Q60.8-15.75 60.7-16.32 60.6-16.9 60.55-17.4L60.55-17.4Q60.4-18 60.32-18.53 60.25-19.05 60.15-19.5L60.15-19.5Q60.1-19.8 60.05-20.28 60-20.75 59.9-20.95L59.9-20.95 59.8-21.55Q59.8-21.75 59.7-21.9L59.7-21.9 59.65-22.2Q59.55-21.9 59.55-21.9L59.55-21.9 59.55-21.7 59.55-21.55Q59.55-21.5 59.5-21.38 59.45-21.25 59.4-20.95L59.4-20.95Q59.35-20.7 59.3-20.33 59.25-19.95 59.15-19.5L59.15-19.5 58.8-17.45 58.4-15.15 58.25-14.05Q58.15-13.65 58.05-12.75L58.05-12.75Q57.6-10.5 57.65-10.7L57.65-10.7 59.85-10.7Q59.9-10.75 60-10.83 60.1-10.9 60.15-10.9L60.15-10.9 60.3-10.9Q60.55-10.9 60.72-10.85 60.9-10.8 61.05-10.75L61.05-10.75Q61.35-10.65 61.65-10.65L61.65-10.65ZM86.45 0.15Q86 0.15 85.75 0.05L85.75 0.05 84.85 0.05 84.1 0.05 83.75 0.05 81.85-0.4 81.7-0.75 81.7-1.25 81.65-2.6Q81.55-3.5 81.55-4.15L81.55-4.15 81.5-7.95Q81.45-8.5 81.45-9.45L81.45-9.45Q81.45-11.75 81.6-13.9L81.6-13.9Q81.7-15.3 81.7-18.4L81.7-18.4Q81.7-18.9 81.6-19.25L81.6-19.25 81.6-19.75 81.55-20.05Q81.55-21.2 81.7-22.3L81.7-22.3 81.75-24.95 81.7-26.15 81.7-27.3Q81.55-27.45 81.55-27.65L81.55-27.65Q81.55-28.4 82.75-28.75L82.75-28.75Q83.45-28.95 84.5-28.95L84.5-28.95 91.8-28.95 95.2-28.9Q95.2-28.9 95.27-28.85 95.35-28.8 95.45-28.7L95.45-28.7Q95.85-28.3 96.25-27.65L96.25-27.65Q96.7-26.9 97-26.05L97-26.05Q97.35-25.05 98.35-22.55L98.35-22.55Q99.15-20.5 99.7-19.3L99.7-19.3Q100.1-18 100.6-18L100.6-18Q101.05-18 101.3-18.65L101.3-18.65Q101.4-18.75 101.6-19.3L101.6-19.3 102.4-21.15Q102.5-21.35 103.1-22.65L103.1-22.65Q103.25-22.9 103.95-24.45L103.95-24.45 104.7-26.05Q104.8-26.35 105-26.8 105.2-27.25 105.45-27.65L105.45-27.65Q105.95-28.45 106.25-28.7L106.25-28.7Q106.35-28.9 106.55-28.9L106.55-28.9 109.95-28.95 117.2-28.95 117.8-28.95 118.25-28.95 118.85-28.95Q119.05-28.9 119.75-28.9L119.75-28.9Q119.8-28.9 119.95-28.25L119.95-28.25Q120.1-25.7 120.1-24.15L120.1-24.15Q120.2-22.25 120.2-18.4L120.2-18.4 120.2-15.9Q120.2-13.65 119.8-9.45L119.8-9.45 119.8-7.95Q119.85-7.3 119.85-6.15L119.85-6.15 119.9-4.05Q119.95-3.45 119.95-2.45L119.95-2.45Q119.95-1.55 120-1.25L120-1.25 120-0.75 119.85-0.4 117.95 0.05 117.55 0.05 116.85 0.05 116 0.05Q115.7 0.15 115.25 0.15L115.25 0.15Q113.3 0.15 111.25-0.03 109.2-0.2 108.7-0.25L108.7-0.25 108.5-0.2 108.25-0.2Q107.95-0.2 107.95-1.15L107.95-1.15Q107.7-2.45 107.7-6.9L107.7-6.9Q107.6-8.15 107.6-10.3L107.6-10.3Q107.6-10.65 107.25-10.65L107.25-10.65Q107.1-10.65 106.95-10.25L106.95-10.25Q106.2-8.45 106.05-8L106.05-8 105.7-6.95 105.3-6.15Q104.4-4.15 103.35-3.05L103.35-3.05Q102.7-2.4 102-2.4L102-2.4 101.35-2.4 100.45-2.4Q99.8-2.4 99.5-2.45L99.5-2.45Q98.95-2.45 98.7-2.5L98.7-2.5Q96.95-5.2 95.45-8.45L95.45-8.45Q95.25-9.05 95.07-9.45 94.9-9.85 94.8-10.15L94.8-10.15Q94.45-10.65 94.45-10.65L94.45-10.65Q94.1-10.65 94.1-10.3L94.1-10.3 94.1-8.3Q94.1-5.25 94.05-3.9L94.05-3.9Q94.05-1.75 93.75-0.7L93.75-0.7Q93.7-0.5 93.62-0.35 93.55-0.2 93.45-0.2L93.45-0.2 93.2-0.2 93-0.25Q92.55-0.2 90.52-0.03 88.5 0.15 86.45 0.15L86.45 0.15ZM131.19 0.15L130.49 0.15 129.69 0.15 128.94 0.15 128.54 0.15 126.59-0.4 126.49-0.7Q126.44-0.7 126.44-1.2L126.44-1.2Q126.44-1.85 126.39-2.25L126.39-2.25 126.34-4.15Q126.29-4.75 126.29-6.05L126.29-6.05Q126.29-7.3 126.24-7.9L126.24-7.9 126.24-9.4Q125.94-12.55 125.94-15.9L125.94-15.9 125.94-16.3 125.94-17.05Q125.94-17.65 125.99-17.9L125.99-17.9 125.99-18.3 125.99-18.65Q125.94-18.8 125.94-19.15L125.94-19.15 125.94-19.7 125.94-20 125.94-20.5 125.94-21.3Q125.94-21.9 125.99-22.15L125.99-22.15 125.99-22.65 126.04-22.9 126.04-23.55Q126.09-24.05 126.09-24.9L126.09-24.9Q126.09-25.55 126.04-26.05L126.04-26.05 125.99-27.2 125.94-27.4Q125.79-27.5 125.94-27.55L125.94-27.55Q126.14-28.35 127.19-28.7L127.19-28.7Q127.69-28.9 128.84-28.9L128.84-28.9Q129.69-28.9 133.29-29.05L133.29-29.05Q135.09-29.15 135.54-29.15L135.54-29.15Q136.29-29.2 137.34-29.2L137.34-29.2Q137.84-29.15 138.04-29.03 138.24-28.9 138.42-28.6 138.59-28.3 138.69-28.15L138.69-28.15 139.69-26.7Q139.64-26.75 140.94-24.9L140.94-24.9Q142.14-22.95 143.84-20.5L143.84-20.5Q144.09-20.1 144.44-19.6 144.79-19.1 145.19-18.45L145.19-18.45 145.19-20.2Q145.24-20.9 145.24-22.2L145.24-22.2Q145.24-23.9 145.34-26L145.34-26Q145.34-26.4 145.39-26.73 145.44-27.05 145.44-27.25L145.44-27.25Q145.44-27.75 145.49-27.75L145.49-27.75Q145.69-28.05 146.19-28.4L146.19-28.4Q146.79-28.8 147.44-28.75L147.44-28.75 149.94-28.75 150.44-28.75Q151.19-28.75 151.69-28.7L151.69-28.7 153.19-28.7Q153.69-28.65 154.69-28.65L154.69-28.65 155.79-28.65 156.29-28.65Q157.29-28.65 157.79-28.3L157.79-28.3Q158.09-28.1 158.19-27.78 158.29-27.45 158.29-26.8L158.29-26.8Q158.29-26.15 158.24-25.7L158.24-25.7Q158.19-25.2 158.19-24.5L158.19-24.5 158.19-24.15Q158.24-24 158.24-23.7L158.24-23.7 158.24-22.4 158.19-16.65 158.19-11 158.19-9.65Q158.19-4.25 158.09-2.8L158.09-2.8 157.94-1.15Q157.69 0 157.24 0.05L157.24 0.05Q157.14 0.05 156.97 0.1 156.79 0.15 156.59 0.15L156.59 0.15Q154.79 0.15 153.94 0.05L153.94 0.05 151.34 0.05 148.74 0.05 148.09 0.05Q147.94 0.1 147.69 0.1L147.69 0.1Q147.09 0.1 146.44-0.15L146.44-0.15Q146.04-0.25 145.59-0.7L145.59-0.7 141.19-6.9Q140.94-7.25 140.24-8.05L140.24-8.05 139.59-8.65Q139.34-8.9 139.19-8.9L139.19-8.9Q139.04-8.9 138.94-8.78 138.84-8.65 138.84-8.55L138.84-8.55 138.84-7.7Q138.79-7.3 138.79-6.45L138.79-6.45 138.79-5Q138.74-4.45 138.74-3.5L138.74-3.5 138.74-2.3 138.74-1.55Q138.69-1.45 138.69-1.25L138.69-1.25Q138.69-1.2 138.54-0.45L138.54-0.45Q138.44-0.25 138.39-0.2 138.34-0.15 138.04-0.15L138.04-0.15Q137.94-0.2 137.87-0.2 137.79-0.2 137.74-0.2L137.74-0.2Q133.79 0.15 131.19 0.15L131.19 0.15ZM171.99 0Q170.09-0.05 165.44-0.05L165.44-0.05Q164.74-0.05 164.49-0.95L164.49-0.95Q164.34-1.45 164.34-2.7L164.34-2.7Q164.34-4.95 164.24-6.65L164.24-6.65Q164.24-8.2 164.14-12.3L164.14-12.3 164.09-18.3 164.09-27.75Q164.09-28.1 164.47-28.5 164.84-28.9 165.19-28.9L165.19-28.9 168.09-28.85Q168.79-28.8 170.14-28.8L170.14-28.8Q171.59-28.75 173.74-28.75L173.74-28.75Q176.94-28.75 178.74-28.8L178.74-28.8Q180.49-28.9 184.59-28.9L184.59-28.9Q187.39-28.9 189.74-27.9L189.74-27.9Q192.69-26.65 194.44-24L194.44-24Q196.44-20.9 196.44-15.95L196.44-15.95Q196.44-11.5 195.47-8.5 194.49-5.5 192.34-3.65L192.34-3.65Q190.14-1.75 186.57-0.88 182.99 0 177.64 0L177.64 0 171.99 0ZM177.99-5.65Q179.09-5.65 179.44-5.75L179.44-5.75Q179.79-5.85 179.94-6L179.94-6Q180.69-6.75 181.34-10.45L181.34-10.45Q181.89-13.9 181.89-16.9L181.89-16.9 181.89-17.7Q181.89-19.45 181.64-21.05L181.64-21.05Q181.44-23 180.84-24.25L180.84-24.25Q180.49-24.8 179.94-24.8L179.94-24.8Q179.49-24.8 178.84-24.55L178.84-24.55 178.49-24.4Q178.49-23.25 178.39-19.25L178.39-19.25 178.34-16.15Q178.34-15.15 178.29-14.6L178.29-14.6 178.24-13.05 177.99-5.65ZM220.89 0Q217.39 0 215.99-0.05L215.99-0.05 214.14-0.05Q212.94-0.15 210.54-0.15L210.54-0.15 208.44-0.15Q206.94-0.15 206.44-0.55L206.44-0.55Q205.74-1.1 205.74-2.7L205.74-2.7 205.79-3.15Q205.79-3.3 205.84-3.48 205.89-3.65 205.89-3.9L205.89-3.9 205.99-5 205.89-6.4Q205.89-6.6 205.84-6.78 205.79-6.95 205.79-7.15L205.79-7.15 205.74-7.5Q205.69-8 205.69-9.4L205.69-9.4 205.69-13.9Q205.64-15.45 205.64-17.5L205.64-17.5Q205.64-18.05 205.49-18.05L205.49-18.05Q205.29-18.05 204.89-17.65L204.89-17.65Q203.99-16.55 202.99-15.75L202.99-15.75Q202.49-15.4 201.89-15.4L201.89-15.4Q201.34-15.4 200.99-15.7 200.64-16 200.64-16.4L200.64-16.4 200.64-25.95Q200.64-26.15 200.74-26.2L200.74-26.2Q200.84-26.25 200.94-26.35 201.04-26.45 201.19-26.5L201.19-26.5Q201.49-26.65 201.96-26.95 202.44-27.25 203.14-27.65L203.14-27.65Q204.54-28.6 205.24-28.8L205.24-28.8Q205.89-29.05 206.39-29.05L206.39-29.05Q211.49-29.05 213.79-29L213.79-29 221.19-28.95Q221.74-28.95 222.14-28.55L222.14-28.55Q222.54-28.15 222.54-27.65L222.54-27.65 222.54-11Q222.54-8.8 222.39-6.9L222.39-6.9Q222.24-4.9 222.24-3.05L222.24-3.05Q222.24-1.65 222.04-1.05L222.04-1.05Q221.79 0 220.89 0L220.89 0ZM240.94 0.55Q237.79 0.55 234.09-0.5L234.09-0.5Q232.84-1 232.54-1.15L232.54-1.15Q232.04-1.3 231.54-1.6 231.04-1.9 230.94-1.95L230.94-1.95Q230.84-2.05 230.54-2.2L230.54-2.2Q229.74-2.55 229.89-3.8L229.89-3.8Q229.89-4.45 230.44-5.95L230.44-5.95Q231.04-7.1 231.14-7.65L231.14-7.65Q231.49-8.35 231.79-8.7 232.09-9.05 232.54-9.15L232.54-9.15Q233.14-9.15 233.64-9L233.64-9Q236.04-8.3 237.89-8.3L237.89-8.3Q240.59-8.3 242.04-9.15L242.04-9.15Q243.24-9.8 243.64-10.9L243.64-10.9Q243.79-11.35 243.94-12.45L243.94-12.45Q240.94-11.4 237.89-11.4L237.89-11.4Q234.19-11.4 231.69-12.95L231.69-12.95Q229.69-14.1 228.61-16 227.54-17.9 227.54-20.5L227.54-20.5Q227.54-23.05 228.71-25.08 229.89-27.1 232.04-28.5L232.04-28.5Q234.09-29.8 236.76-30.48 239.44-31.15 242.29-31.15L242.29-31.15Q246.84-31.15 250.39-29.45L250.39-29.45Q254.54-27.6 256.79-24.4L256.79-24.4Q259.34-20.8 259.34-15.75L259.34-15.75Q259.34-13.6 259.14-11.93 258.94-10.25 258.39-8.8L258.39-8.8Q257.29-5.7 254.09-2.8L254.09-2.8Q248.94 0.55 240.94 0.55L240.94 0.55ZM239.79-18.8Q240.99-18.8 242.39-19.2L242.39-19.2Q242.99-19.35 243.59-19.65L243.59-19.65Q242.69-23.15 240.09-23.15L240.09-23.15Q238.89-23.15 238.21-22.55 237.54-21.95 237.54-20.7L237.54-20.7Q237.54-19.7 238.14-19.2L238.14-19.2Q238.69-18.8 239.79-18.8L239.79-18.8Z" opacity="1" transform="matrix(1,0,0,1,0,0)" fill="#398378" class="undefined-text-0" data-fill-palette-color="primary" id="text-0"></path></svg></g></svg></g><g transform="matrix(1,0,0,1,0,27.188585259136545)"><svg viewBox="0 0 192 14.662879641360496" height="14.662879641360496" width="192"><g transform="matrix(1,0,0,1,0,0)"><svg width="192" viewBox="3.3499999046325684 -32.75 559.780029296875 42.75" height="14.662879641360496" data-palette-color="#398378"><path d="M10.6 0L3.35 0 3.35-32.75 11.05-32.75Q16.55-32.75 19.23-30.78 21.9-28.8 21.9-24.25L21.9-24.25Q21.9-18.55 16.35-16.85L16.35-16.85Q19.65-16.1 21.23-14.35 22.8-12.6 22.8-9.25L22.8-9.25Q22.8-3.95 19.8-1.98 16.8 0 10.6 0L10.6 0ZM19.9-9.25L19.9-9.25Q19.9-15.35 11.6-15.35L11.6-15.35 6.1-15.35 6.1-2.45 10.6-2.45Q15.25-2.45 17.57-3.93 19.9-5.4 19.9-9.25ZM16.4-29.4L16.4-29.4Q14.25-30.3 11.05-30.3L11.05-30.3 6.1-30.3 6.1-17.8 11.45-17.8Q14.6-17.8 16.8-19.23 19-20.65 19.05-24.45 19.1-28.25 16.4-29.4ZM75.4 0L72.85 0 72.75-2.05Q67.95 0.45 64.75 0.45 61.55 0.45 59.7-1.75 57.85-3.95 57.85-7.75L57.85-7.75 57.85-23.75 60.5-23.75 60.5-7.75Q60.5-5.3 61.68-3.73 62.85-2.15 65.25-2.15 67.65-2.15 72.75-4.65L72.75-4.65 72.75-23.75 75.4-23.75 75.4 0ZM129.71-23.75L129.71-5.75 129.86 1.15Q129.86 5.6 127.18 7.8 124.51 10 120.56 10 116.61 10 111.56 8L111.56 8 112.46 5.5Q117.41 7.4 120.33 7.4 123.26 7.4 125.23 5.88 127.21 4.35 127.21 1.2L127.21 1.2Q127.21 0.8 127.13-0.58 127.06-1.95 127.06-2.6L127.06-2.6Q123.41-0.05 120.26-0.05L120.26-0.05Q115.76-0.05 113.33-3.13 110.91-6.2 110.91-11.88 110.91-17.55 113.61-20.8 116.31-24.05 121.11-24.05L121.11-24.05Q123.76-24.05 127.06-22.3L127.06-22.3 127.16-23.75 129.71-23.75ZM113.76-11.93Q113.76-7.55 115.46-5.1 117.16-2.65 120.41-2.65 123.66-2.65 127.06-5.5L127.06-5.5 127.06-19.5Q123.96-21.45 121.21-21.45L121.21-21.45Q117.66-21.45 115.71-18.88 113.76-16.3 113.76-11.93ZM237.26-16L234.56-16 234.56-20.95Q232.11-21.5 230.66-21.5L230.66-21.5Q227.06-21.5 225.29-18.95 223.51-16.4 223.51-11.9 223.51-7.4 225.31-4.78 227.11-2.15 230.66-2.15L230.66-2.15Q232.91-2.15 236.91-3.55L236.91-3.55 237.66-1.05Q233.71 0.45 230.71 0.45L230.71 0.45Q225.81 0.45 223.24-2.83 220.66-6.1 220.66-11.95 220.66-17.8 223.21-20.93 225.76-24.05 230.71-24.05L230.71-24.05Q234.01-24.05 237.26-23L237.26-23 237.26-16ZM280.02-21.25L275.32-21.25 275.32-23.75 282.67-23.75 282.77-20.85Q284.37-21.85 287.27-22.85 290.17-23.85 292.37-24.05L292.37-24.05 292.37-21.1Q290.32-20.95 287.29-20.1 284.27-19.25 282.77-18.35L282.77-18.35 282.77-2.5 290.77-2.5 290.77 0 275.32 0 275.32-2.5 280.02-2.5 280.02-21.25ZM328.27-11.85Q328.27-17.6 330.64-20.83 333.02-24.05 337.57-24.05 342.12-24.05 344.34-21.05 346.57-18.05 346.57-13.05L346.57-13.05 346.42-10.55 331.12-10.55Q331.37-6.8 333.12-4.48 334.87-2.15 337.94-2.15 341.02-2.15 345.17-3.6L345.17-3.6 345.92-1.1Q341.87 0.45 338.32 0.45L338.32 0.45Q333.42 0.45 330.84-2.83 328.27-6.1 328.27-11.85ZM337.77-21.5L337.77-21.5Q331.47-21.5 331.12-13.05L331.12-13.05 343.72-13.05Q343.72-21.5 337.77-21.5ZM389.97-2.15L389.97-2.15Q391.82-2.15 394-3.33 396.17-4.5 397.17-5.5L397.17-5.5 397.17-11.45Q393.87-11.7 390.87-11.7 387.87-11.7 386.37-10.43 384.87-9.15 384.87-7L384.87-7Q384.87-2.15 389.97-2.15ZM389.92 0.45L389.92 0.45Q386.27 0.45 384.17-1.43 382.07-3.3 382.07-6.75 382.07-10.2 384.37-12.1L384.37-12.1Q386.67-14.05 390.47-14.05 394.27-14.05 397.17-13.75L397.17-13.75Q397.17-18.2 396.07-19.83 394.97-21.45 391.62-21.45 388.27-21.45 383.72-19.85L383.72-19.85 382.97-22.35Q387.62-24.05 391.37-24.05L391.37-24.05Q396.32-24.05 398.07-21.85 399.82-19.65 399.82-14.15L399.82-14.15 399.82-3.65 400.22 0.15 397.67 0.4 397.17-2.6Q396.02-1.6 393.92-0.58 391.82 0.45 389.92 0.45ZM441.22-9.1L441.22-20.9 437.02-20.9 437.02-23.4 441.22-23.4 441.22-29.15 443.87-29.65 443.87-23.4 453.37-23.4 453.37-20.9 443.87-20.9 443.87-9.2Q443.87-5.3 444.65-3.7 445.42-2.1 447.82-2.1 450.22-2.1 453.12-3.05L453.12-3.05 453.72-0.55Q450.82 0.5 448.32 0.5 445.82 0.5 444.4-0.15 442.97-0.8 442.3-2.23 441.62-3.65 441.42-5.15 441.22-6.65 441.22-9.1L441.22-9.1ZM490.33-11.8Q490.33-24.05 499.88-24.05 509.43-24.05 509.43-11.8 509.43 0.45 499.88 0.45 490.33 0.45 490.33-11.8ZM499.88-21.45Q493.18-21.45 493.18-11.8 493.18-2.15 499.88-2.15 506.58-2.15 506.58-11.8 506.58-21.45 499.88-21.45ZM550.78-21.25L546.08-21.25 546.08-23.75 553.43-23.75 553.53-20.85Q555.13-21.85 558.03-22.85 560.93-23.85 563.13-24.05L563.13-24.05 563.13-21.1Q561.08-20.95 558.06-20.1 555.03-19.25 553.53-18.35L553.53-18.35 553.53-2.5 561.53-2.5 561.53 0 546.08 0 546.08-2.5 550.78-2.5 550.78-21.25Z" opacity="1" transform="matrix(1,0,0,1,0,0)" fill="#398378" class="undefined-text-1" data-fill-palette-color="secondary" id="text-1"></path></svg></g></svg></g></svg></g></svg></g><g></g></svg></g></svg></g></svg></g></svg></g></svg><rect width="320" height="360" fill="none" stroke="none" visibility="hidden"></rect></g></svg></g></svg>